<?xml version="1.0" encoding="UTF-8" standalone="no"?>

<svg
   xmlns:dc="http://purl.org/dc/elements/1.1/"
   xmlns:cc="http://web.resource.org/cc/"
   xmlns:rdf="http://www.w3.org/1999/02/22-rdf-syntax-ns#"
   xmlns:svg="http://www.w3.org/2000/svg"
   xmlns="http://www.w3.org/2000/svg"
   xmlns:xlink="http://www.w3.org/1999/xlink"
   xmlns:sodipodi="http://sodipodi.sourceforge.net/DTD/sodipodi-0.dtd"
   xmlns:inkscape="http://www.inkscape.org/namespaces/inkscape"
   width="709.44946"
   height="681.58722"
   id="svg2"
   inkscape:label="Pozadí"
   sodipodi:version="0.32"
   inkscape:version="0.44.1"
   sodipodi:docbase="D:\_petr_\School\INKSCAPE\svg\06.Zvirata"
   sodipodi:docname="brouk.svg"
   version="1.0">
  <defs
     id="defs3">
    <linearGradient
       inkscape:collect="always"
       id="linearGradient2899">
      <stop
         style="stop-color:#5f5f5f;stop-opacity:1;"
         offset="0"
         id="stop2901" />
      <stop
         style="stop-color:#5f5f5f;stop-opacity:0"
         offset="1"
         id="stop2903" />
    </linearGradient>
    <linearGradient
       inkscape:collect="always"
       id="linearGradient2889">
      <stop
         style="stop-color:#ae594b;stop-opacity:1;"
         offset="0"
         id="stop2891" />
      <stop
         style="stop-color:#ae594b;stop-opacity:0;"
         offset="1"
         id="stop2893" />
    </linearGradient>
    <linearGradient
       inkscape:collect="always"
       id="linearGradient2875">
      <stop
         style="stop-color:black;stop-opacity:1;"
         offset="0"
         id="stop2877" />
      <stop
         style="stop-color:black;stop-opacity:0;"
         offset="1"
         id="stop2879" />
    </linearGradient>
    <linearGradient
       inkscape:collect="always"
       id="linearGradient2786">
      <stop
         style="stop-color:#ac8700;stop-opacity:1;"
         offset="0"
         id="stop2788" />
      <stop
         style="stop-color:#ac8700;stop-opacity:0;"
         offset="1"
         id="stop2790" />
    </linearGradient>
    <radialGradient
       inkscape:collect="always"
       xlink:href="#linearGradient2786"
       id="radialGradient2989"
       gradientUnits="userSpaceOnUse"
       gradientTransform="matrix(0.999999,-0.285732,0.215868,0.747081,-129.1049,272.9053)"
       cx="425.71429"
       cy="598.07648"
       fx="425.71429"
       fy="598.07648"
       r="202.85715" />
    <linearGradient
       inkscape:collect="always"
       xlink:href="#linearGradient2875"
       id="linearGradient2991"
       gradientUnits="userSpaceOnUse"
       gradientTransform="matrix(0.968201,4.996831e-2,-5.258029e-2,1.018812,24.10396,-5.505823)"
       x1="194.39433"
       y1="556.86371"
       x2="145.82291"
       y2="276.86371" />
    <radialGradient
       inkscape:collect="always"
       xlink:href="#linearGradient2889"
       id="radialGradient2993"
       gradientUnits="userSpaceOnUse"
       gradientTransform="matrix(1.866369,2.633573e-2,-1.344398e-2,0.844565,-75.74429,16.32825)"
       cx="89.386635"
       cy="124.77032"
       fx="89.386635"
       fy="124.77032"
       r="30.827223" />
    <radialGradient
       inkscape:collect="always"
       xlink:href="#linearGradient2899"
       id="radialGradient2995"
       gradientUnits="userSpaceOnUse"
       gradientTransform="matrix(0.982384,-0.152904,0.165956,5.564948,9.439256,346.8273)"
       cx="-262.85715"
       cy="-84.78067"
       fx="-262.85715"
       fy="-84.78067"
       r="97.14286" />
    <radialGradient
       inkscape:collect="always"
       xlink:href="#linearGradient2899"
       id="radialGradient2997"
       gradientUnits="userSpaceOnUse"
       gradientTransform="matrix(0.982384,-0.152904,0.165956,5.564948,9.439256,346.8273)"
       cx="-262.85715"
       cy="-84.78067"
       fx="-262.85715"
       fy="-84.78067"
       r="97.14286" />
    <radialGradient
       inkscape:collect="always"
       xlink:href="#linearGradient2899"
       id="radialGradient2999"
       gradientUnits="userSpaceOnUse"
       gradientTransform="matrix(0.982384,-0.152904,0.165956,5.564948,9.439256,346.8273)"
       cx="-262.85715"
       cy="-84.78067"
       fx="-262.85715"
       fy="-84.78067"
       r="97.14286" />
    <radialGradient
       inkscape:collect="always"
       xlink:href="#linearGradient2899"
       id="radialGradient3001"
       gradientUnits="userSpaceOnUse"
       gradientTransform="matrix(0.982384,-0.152904,0.165956,5.564948,9.439256,346.8273)"
       cx="-262.85715"
       cy="-84.78067"
       fx="-262.85715"
       fy="-84.78067"
       r="97.14286" />
    <radialGradient
       inkscape:collect="always"
       xlink:href="#linearGradient2899"
       id="radialGradient3003"
       gradientUnits="userSpaceOnUse"
       gradientTransform="matrix(0.982384,-0.152904,0.165956,5.564948,9.439256,346.8273)"
       cx="-262.85715"
       cy="-84.78067"
       fx="-262.85715"
       fy="-84.78067"
       r="97.14286" />
    <radialGradient
       inkscape:collect="always"
       xlink:href="#linearGradient2899"
       id="radialGradient3005"
       gradientUnits="userSpaceOnUse"
       gradientTransform="matrix(0.982384,-0.152904,0.165956,5.564948,9.439256,346.8273)"
       cx="-262.85715"
       cy="-84.78067"
       fx="-262.85715"
       fy="-84.78067"
       r="97.14286" />
    <radialGradient
       inkscape:collect="always"
       xlink:href="#linearGradient2899"
       id="radialGradient3007"
       gradientUnits="userSpaceOnUse"
       gradientTransform="matrix(0.982384,-0.152904,0.165956,5.564948,9.439256,346.8273)"
       cx="-262.85715"
       cy="-84.78067"
       fx="-262.85715"
       fy="-84.78067"
       r="97.14286" />
    <radialGradient
       inkscape:collect="always"
       xlink:href="#linearGradient2899"
       id="radialGradient3009"
       gradientUnits="userSpaceOnUse"
       gradientTransform="matrix(0.982384,-0.152904,0.165956,5.564948,9.439256,346.8273)"
       cx="-262.85715"
       cy="-84.78067"
       fx="-262.85715"
       fy="-84.78067"
       r="97.14286" />
    <radialGradient
       inkscape:collect="always"
       xlink:href="#linearGradient2899"
       id="radialGradient3011"
       gradientUnits="userSpaceOnUse"
       gradientTransform="matrix(0.982384,-0.152904,0.165956,5.564948,9.439256,346.8273)"
       cx="-262.85715"
       cy="-84.78067"
       fx="-262.85715"
       fy="-84.78067"
       r="97.14286" />
    <radialGradient
       inkscape:collect="always"
       xlink:href="#linearGradient2899"
       id="radialGradient3013"
       gradientUnits="userSpaceOnUse"
       gradientTransform="matrix(0.982384,-0.152904,0.165956,5.564948,9.439256,346.8273)"
       cx="-262.85715"
       cy="-84.78067"
       fx="-262.85715"
       fy="-84.78067"
       r="97.14286" />
    <radialGradient
       inkscape:collect="always"
       xlink:href="#linearGradient2899"
       id="radialGradient3015"
       gradientUnits="userSpaceOnUse"
       gradientTransform="matrix(0.982384,-0.152904,0.165956,5.564948,9.439256,346.8273)"
       cx="-262.85715"
       cy="-84.78067"
       fx="-262.85715"
       fy="-84.78067"
       r="97.14286" />
  </defs>
  <sodipodi:namedview
     id="base"
     pagecolor="#ffffff"
     bordercolor="#666666"
     borderopacity="1.0"
     inkscape:pageopacity="0.0"
     inkscape:pageshadow="2"
     inkscape:zoom="0.9899495"
     inkscape:cx="467.26631"
     inkscape:cy="173.35781"
     inkscape:document-units="px"
     inkscape:current-layer="layer1"
     inkscape:window-width="1024"
     inkscape:window-height="710"
     inkscape:window-x="93"
     inkscape:window-y="230" />
  <metadata
     id="metadata6">
    <rdf:RDF>
      <cc:Work
         rdf:about="">
        <dc:format>image/svg+xml</dc:format>
        <dc:type
           rdf:resource="http://purl.org/dc/dcmitype/StillImage" />
        <dc:title>brouk</dc:title>
        <dc:creator>
          <cc:Agent>
            <dc:title />
          </cc:Agent>
        </dc:creator>
        <dc:publisher>
          <cc:Agent>
            <dc:title>ZS a MS Machovo nam.</dc:title>
          </cc:Agent>
        </dc:publisher>
        <dc:language>cz</dc:language>
        <dc:subject>
          <rdf:Bag>
            <rdf:li>brouk</rdf:li>
            <rdf:li>beetle</rdf:li>
          </rdf:Bag>
        </dc:subject>
        <cc:license
           rdf:resource="http://web.resource.org/cc/PublicDomain" />
      </cc:Work>
      <cc:License
         rdf:about="http://web.resource.org/cc/PublicDomain">
        <cc:permits
           rdf:resource="http://web.resource.org/cc/Reproduction" />
        <cc:permits
           rdf:resource="http://web.resource.org/cc/Distribution" />
        <cc:permits
           rdf:resource="http://web.resource.org/cc/DerivativeWorks" />
      </cc:License>
    </rdf:RDF>
  </metadata>
  <g
     inkscape:label="Vrstva 1"
     inkscape:groupmode="layer"
     id="layer1"
     transform="translate(-12.58492,-167.7548)">
    <g
       id="g2947"
       transform="matrix(0.307726,0,0,0.298191,369.915,347.8674)">
      <path
         transform="matrix(0.977385,-0.211466,0.211466,0.977385,71.9838,-117.5025)"
         d="M -165.71429 -84.78067 A 97.14286 434.28571 0 1 1  -360.00001,-84.78067 A 97.14286 434.28571 0 1 1  -165.71429 -84.78067 z"
         sodipodi:ry="434.28571"
         sodipodi:rx="97.14286"
         sodipodi:cy="-84.78067"
         sodipodi:cx="-262.85715"
         id="path2794"
         style="opacity:1;fill:#c6c6c6;fill-opacity:1;fill-rule:evenodd;stroke:black;stroke-width:2.79999995;stroke-linecap:round;stroke-linejoin:round;stroke-miterlimit:4;stroke-dasharray:none;stroke-opacity:1"
         sodipodi:type="arc" />
      <path
         transform="matrix(0.994697,0.102848,-0.102848,0.994697,289.8865,-59.12957)"
         d="M -165.71429 -84.78067 A 97.14286 434.28571 0 1 1  -360.00001,-84.78067 A 97.14286 434.28571 0 1 1  -165.71429 -84.78067 z"
         sodipodi:ry="434.28571"
         sodipodi:rx="97.14286"
         sodipodi:cy="-84.78067"
         sodipodi:cx="-262.85715"
         id="path2796"
         style="opacity:1;fill:#c5c5c1;fill-opacity:1;fill-rule:evenodd;stroke:black;stroke-width:2.79999995;stroke-linecap:round;stroke-linejoin:round;stroke-miterlimit:4;stroke-dasharray:none;stroke-opacity:1"
         sodipodi:type="arc" />
      <path
         transform="matrix(0.950639,0.46974,-0.340312,0.883764,469.6022,87.90576)"
         d="M -165.71429 -84.78067 A 97.14286 434.28571 0 1 1  -360.00001,-84.78067 A 97.14286 434.28571 0 1 1  -165.71429 -84.78067 z"
         sodipodi:ry="434.28571"
         sodipodi:rx="97.14286"
         sodipodi:cy="-84.78067"
         sodipodi:cx="-262.85715"
         id="path2798"
         style="opacity:1;fill:#c6c6c6;fill-opacity:1;fill-rule:evenodd;stroke:black;stroke-width:2.79999995;stroke-linecap:round;stroke-linejoin:round;stroke-miterlimit:4;stroke-dasharray:none;stroke-opacity:1"
         sodipodi:type="arc" />
      <path
         transform="matrix(0.77854,0.719893,-0.576819,0.751087,604.3132,259.5546)"
         d="M -165.71429 -84.78067 A 97.14286 434.28571 0 1 1  -360.00001,-84.78067 A 97.14286 434.28571 0 1 1  -165.71429 -84.78067 z"
         sodipodi:ry="434.28571"
         sodipodi:rx="97.14286"
         sodipodi:cy="-84.78067"
         sodipodi:cx="-262.85715"
         id="path2812"
         style="opacity:1;fill:#c6c6c6;fill-opacity:1;fill-rule:evenodd;stroke:black;stroke-width:2.79999995;stroke-linecap:round;stroke-linejoin:round;stroke-miterlimit:4;stroke-dasharray:none;stroke-opacity:1"
         sodipodi:type="arc" />
      <path
         transform="matrix(9.154701e-2,0.986954,-0.973776,0.425221,618.6497,496.412)"
         d="M -165.71429 -84.78067 A 97.14286 434.28571 0 1 1  -360.00001,-84.78067 A 97.14286 434.28571 0 1 1  -165.71429 -84.78067 z"
         sodipodi:ry="434.28571"
         sodipodi:rx="97.14286"
         sodipodi:cy="-84.78067"
         sodipodi:cx="-262.85715"
         id="path2814"
         style="opacity:1;fill:#c6c6c6;fill-opacity:1;fill-rule:evenodd;stroke:black;stroke-width:2.79999995;stroke-linecap:round;stroke-linejoin:round;stroke-miterlimit:4;stroke-dasharray:none;stroke-opacity:1"
         sodipodi:type="arc" />
      <path
         transform="matrix(0.770712,0.893076,-0.959882,0.185222,829.7792,671.3881)"
         d="M -165.71429 -84.78067 A 97.14286 434.28571 0 1 1  -360.00001,-84.78067 A 97.14286 434.28571 0 1 1  -165.71429 -84.78067 z"
         sodipodi:ry="434.28571"
         sodipodi:rx="97.14286"
         sodipodi:cy="-84.78067"
         sodipodi:cx="-262.85715"
         id="path2816"
         style="opacity:1;fill:#c6c6c6;fill-opacity:1;fill-rule:evenodd;stroke:black;stroke-width:2.79999995;stroke-linecap:round;stroke-linejoin:round;stroke-miterlimit:4;stroke-dasharray:none;stroke-opacity:1"
         sodipodi:type="arc" />
      <path
         transform="matrix(0.60718,1.011392,-0.977407,1.887185e-2,791.0221,902.671)"
         d="M -165.71429 -84.78067 A 97.14286 434.28571 0 1 1  -360.00001,-84.78067 A 97.14286 434.28571 0 1 1  -165.71429 -84.78067 z"
         sodipodi:ry="434.28571"
         sodipodi:rx="97.14286"
         sodipodi:cy="-84.78067"
         sodipodi:cx="-262.85715"
         id="path2818"
         style="opacity:1;fill:#c6c6c6;fill-opacity:1;fill-rule:evenodd;stroke:black;stroke-width:2.79999995;stroke-linecap:round;stroke-linejoin:round;stroke-miterlimit:4;stroke-dasharray:none;stroke-opacity:1"
         sodipodi:type="arc" />
      <path
         transform="matrix(9.556795e-2,1.161695,-0.886254,-0.309272,607.1264,1208.644)"
         d="M -165.71429 -84.78067 A 97.14286 434.28571 0 1 1  -360.00001,-84.78067 A 97.14286 434.28571 0 1 1  -165.71429 -84.78067 z"
         sodipodi:ry="434.28571"
         sodipodi:rx="97.14286"
         sodipodi:cy="-84.78067"
         sodipodi:cx="-262.85715"
         id="path2820"
         style="opacity:1;fill:#c6c6c6;fill-opacity:1;fill-rule:evenodd;stroke:black;stroke-width:2.79999995;stroke-linecap:round;stroke-linejoin:round;stroke-miterlimit:4;stroke-dasharray:none;stroke-opacity:1"
         sodipodi:type="arc" />
      <path
         transform="matrix(-0.665091,0.957247,-0.487214,-0.80232,138.1555,1430.245)"
         d="M -165.71429 -84.78067 A 97.14286 434.28571 0 1 1  -360.00001,-84.78067 A 97.14286 434.28571 0 1 1  -165.71429 -84.78067 z"
         sodipodi:ry="434.28571"
         sodipodi:rx="97.14286"
         sodipodi:cy="-84.78067"
         sodipodi:cx="-262.85715"
         id="path2822"
         style="opacity:1;fill:#c6c6c6;fill-opacity:1;fill-rule:evenodd;stroke:black;stroke-width:2.79999995;stroke-linecap:round;stroke-linejoin:round;stroke-miterlimit:4;stroke-dasharray:none;stroke-opacity:1"
         sodipodi:type="arc" />
      <path
         transform="matrix(-0.849201,0.647165,-0.193709,-0.843289,-113.9272,1399.55)"
         d="M -165.71429 -84.78067 A 97.14286 434.28571 0 1 1  -360.00001,-84.78067 A 97.14286 434.28571 0 1 1  -165.71429 -84.78067 z"
         sodipodi:ry="434.28571"
         sodipodi:rx="97.14286"
         sodipodi:cy="-84.78067"
         sodipodi:cx="-262.85715"
         id="path2825"
         style="opacity:1;fill:#c6c6c6;fill-opacity:1;fill-rule:evenodd;stroke:black;stroke-width:2.79999995;stroke-linecap:round;stroke-linejoin:round;stroke-miterlimit:4;stroke-dasharray:none;stroke-opacity:1"
         sodipodi:type="arc" />
      <path
         transform="matrix(-1.000719,0.37219,5.994204e-2,-0.863172,-355.1072,1328.444)"
         d="M -165.71429 -84.78067 A 97.14286 434.28571 0 1 1  -360.00001,-84.78067 A 97.14286 434.28571 0 1 1  -165.71429 -84.78067 z"
         sodipodi:ry="434.28571"
         sodipodi:rx="97.14286"
         sodipodi:cy="-84.78067"
         sodipodi:cx="-262.85715"
         id="path2827"
         style="opacity:1;fill:#c6c6c6;fill-opacity:1;fill-rule:evenodd;stroke:black;stroke-width:2.79999995;stroke-linecap:round;stroke-linejoin:round;stroke-miterlimit:4;stroke-dasharray:none;stroke-opacity:1"
         sodipodi:type="arc" />
      <path
         transform="matrix(-0.944741,-0.497422,0.683139,-0.531018,-733.272,890.8765)"
         d="M -165.71429 -84.78067 A 97.14286 434.28571 0 1 1  -360.00001,-84.78067 A 97.14286 434.28571 0 1 1  -165.71429 -84.78067 z"
         sodipodi:ry="434.28571"
         sodipodi:rx="97.14286"
         sodipodi:cy="-84.78067"
         sodipodi:cx="-262.85715"
         id="path2829"
         style="opacity:1;fill:#c6c6c6;fill-opacity:1;fill-rule:evenodd;stroke:black;stroke-width:2.79999995;stroke-linecap:round;stroke-linejoin:round;stroke-miterlimit:4;stroke-dasharray:none;stroke-opacity:1"
         sodipodi:type="arc" />
      <path
         transform="matrix(-0.683849,-0.899512,0.87283,-0.219531,-785.7556,600.1643)"
         d="M -165.71429 -84.78067 A 97.14286 434.28571 0 1 1  -360.00001,-84.78067 A 97.14286 434.28571 0 1 1  -165.71429 -84.78067 z"
         sodipodi:ry="434.28571"
         sodipodi:rx="97.14286"
         sodipodi:cy="-84.78067"
         sodipodi:cx="-262.85715"
         id="path2831"
         style="opacity:1;fill:#c6c6c6;fill-opacity:1;fill-rule:evenodd;stroke:black;stroke-width:2.79999995;stroke-linecap:round;stroke-linejoin:round;stroke-miterlimit:4;stroke-dasharray:none;stroke-opacity:1"
         sodipodi:type="arc" />
      <path
         transform="matrix(-0.58221,-1.027598,0.91242,-0.118113,-815.6822,383.6655)"
         d="M -165.71429 -84.78067 A 97.14286 434.28571 0 1 1  -360.00001,-84.78067 A 97.14286 434.28571 0 1 1  -165.71429 -84.78067 z"
         sodipodi:ry="434.28571"
         sodipodi:rx="97.14286"
         sodipodi:cy="-84.78067"
         sodipodi:cx="-262.85715"
         id="path2833"
         style="opacity:1;fill:#c6c6c6;fill-opacity:1;fill-rule:evenodd;stroke:black;stroke-width:2.79999995;stroke-linecap:round;stroke-linejoin:round;stroke-miterlimit:4;stroke-dasharray:none;stroke-opacity:1"
         sodipodi:type="arc" />
      <path
         transform="matrix(-0.310866,-1.222467,0.963931,0.132498,-739.9908,122.2614)"
         d="M -165.71429 -84.78067 A 97.14286 434.28571 0 1 1  -360.00001,-84.78067 A 97.14286 434.28571 0 1 1  -165.71429 -84.78067 z"
         sodipodi:ry="434.28571"
         sodipodi:rx="97.14286"
         sodipodi:cy="-84.78067"
         sodipodi:cx="-262.85715"
         id="path2835"
         style="opacity:1;fill:#c6c6c6;fill-opacity:1;fill-rule:evenodd;stroke:black;stroke-width:2.79999995;stroke-linecap:round;stroke-linejoin:round;stroke-miterlimit:4;stroke-dasharray:none;stroke-opacity:1"
         sodipodi:type="arc" />
      <path
         transform="matrix(0.444956,-1.180287,0.714491,0.660471,-413.8936,-127.6038)"
         d="M -165.71429 -84.78067 A 97.14286 434.28571 0 1 1  -360.00001,-84.78067 A 97.14286 434.28571 0 1 1  -165.71429 -84.78067 z"
         sodipodi:ry="434.28571"
         sodipodi:rx="97.14286"
         sodipodi:cy="-84.78067"
         sodipodi:cx="-262.85715"
         id="path2837"
         style="opacity:1;fill:#c6c6c6;fill-opacity:1;fill-rule:evenodd;stroke:black;stroke-width:2.79999995;stroke-linecap:round;stroke-linejoin:round;stroke-miterlimit:4;stroke-dasharray:none;stroke-opacity:1"
         sodipodi:type="arc" />
      <path
         transform="translate(-451.4285,5.714286)"
         d="M 794.28571 589.50507 A 351.42856 354.28571 0 1 1  91.428589,589.50507 A 351.42856 354.28571 0 1 1  794.28571 589.50507 z"
         sodipodi:ry="354.28571"
         sodipodi:rx="351.42856"
         sodipodi:cy="589.50507"
         sodipodi:cx="442.85715"
         id="path1881"
         style="opacity:1;fill:#d1b900;fill-opacity:1;fill-rule:evenodd;stroke:#63c737;stroke-width:2.79999995;stroke-linecap:round;stroke-linejoin:round;stroke-miterlimit:4;stroke-dasharray:none;stroke-opacity:1"
         sodipodi:type="arc" />
      <path
         transform="matrix(1.450704,0,0,1.493151,-660.4427,-243.5133)"
         d="M 628.57144 598.07648 A 202.85715 208.57143 0 1 1  222.85715,598.07648 A 202.85715 208.57143 0 1 1  628.57144 598.07648 z"
         sodipodi:ry="208.57143"
         sodipodi:rx="202.85715"
         sodipodi:cy="598.07648"
         sodipodi:cx="425.71429"
         id="path2776"
         style="opacity:1;fill:url(#radialGradient2989);fill-opacity:1;fill-rule:evenodd;stroke:none;stroke-width:2.79999995;stroke-linecap:round;stroke-linejoin:round;stroke-miterlimit:4;stroke-dasharray:none;stroke-opacity:1"
         sodipodi:type="arc" />
      <path
         id="path2853"
         d="M 107.14286,235.21933 L 155.71429,232.36218 L 195.71429,232.36218 L 205.71429,235.21933 L 207.14286,240.93361 L 201.42857,255.21933 L 185.71429,272.36218 L 172.85714,288.07647 L 161.42857,299.50504 L 197.14286,312.36218 L 218.57143,315.21933 L 244.28571,322.36218 L 254.28571,322.36218 L 221.42857,309.50504 L 198.57143,309.50504 L 177.14286,299.50504 L 197.14286,270.93361 L 211.42857,252.36218 L 215.71429,232.36218 L 205.71429,223.79075 L 171.42857,215.21933 L 81.428571,215.21933 L 74.285714,228.07647 L 47.142857,222.36218 L 25.714286,220.93361 L -8.5714286,220.93361 L -24.285714,229.50504 L -27.142857,250.93361 L -28.571429,288.07647 L -20,319.50504 L -44.285714,335.21933 L -80,348.07647 L -100,352.36218 L -80,355.21933 L -68.571429,355.21933 L -54.285714,346.6479 L -50,350.93361 L -18.571429,330.93361 L -10,320.93361 L -12.857143,308.07647 L -18.571429,278.07647 L -17.142857,246.6479 L -11.428571,240.93361 L 5.7142857,240.93361 L 45.714286,240.93361 L 71.428571,245.21933 L 107.14286,235.21933 z "
         style="fill:#943201;fill-opacity:1;fill-rule:evenodd;stroke:black;stroke-width:1px;stroke-linecap:butt;stroke-linejoin:miter;stroke-opacity:1" />
      <path
         id="path2851"
         d="M 124.28571,298.07647 L 168.57143,289.50504 L 201.42857,278.07647 L 227.14286,278.07647 L 237.14286,278.07647 L 238.57143,290.93361 L 228.57143,326.6479 L 182.85714,396.6479 L 202.85714,418.07647 L 221.42857,433.79075 L 242.85714,442.36218 L 264.28571,442.36218 L 265.71429,445.21933 L 242.85714,448.07647 L 241.42857,455.21933 L 225.71429,442.36218 L 224.28571,445.21933 L 210,430.93361 L 204.28571,435.21933 L 192.85714,418.07647 L 168.57143,399.50504 L 187.14286,379.50504 L 202.85714,362.36218 L 215.71429,338.07647 L 227.14286,310.93361 L 228.57143,292.36218 L 208.57143,300.93361 L 162.85714,310.93361 L 91.428571,325.21933 L 67.142857,320.93361 L 48.571429,305.21933 L 31.428571,288.07647 L 22.857143,278.07647 L 21.428571,299.50504 L 28.571429,326.6479 L 34.285714,348.07647 L 45.714286,372.36218 L 42.857143,388.07647 L 27.142857,408.07647 L 18.571429,425.21933 L 17.142857,439.50504 L 11.428571,436.6479 L 8.5714286,453.79075 L 5.7142857,449.50504 L 1.4285714,468.07647 L -5.7142857,460.93361 L -18.571429,468.07647 L -7.1428571,455.21933 L 5.7142857,430.93361 L 18.571429,408.07647 L 38.571429,382.36218 L 34.285714,372.36218 L 24.285714,352.36218 L 18.571429,332.36218 L 14.285714,295.21933 L 14.285714,269.50504 L 18.571429,259.50504 L 27.142857,258.07647 L 41.428571,272.36218 L 84.285714,305.21933 L 124.28571,298.07647 z "
         style="fill:#811f00;fill-opacity:1;fill-rule:evenodd;stroke:black;stroke-width:1px;stroke-linecap:butt;stroke-linejoin:miter;stroke-opacity:1" />
      <path
         id="path2855"
         d="M 77.142857,160.93361 L 42.857143,160.93361 L 17.142857,148.07647 L -22.857143,133.79075 L -38.571429,132.36218 L -47.142857,132.36218 L -65.714286,125.21932 L -61.428571,115.21932 L -44.285714,125.21932 L -32.857143,125.21932 L -20,115.21932 L 22.857143,132.36218 L 60,148.07647 L 120,139.50504 L 130,130.93361 L 152.85714,115.21932 L 98.571429,115.21932 L 115.71429,106.6479 L 168.57143,109.50504 L 171.42857,116.6479 L 165.71429,126.6479 L 140,145.21932 L 95.714286,168.07647 L 77.142857,160.93361 z "
         style="fill:#92340b;fill-opacity:1;fill-rule:evenodd;stroke:black;stroke-width:1px;stroke-linecap:butt;stroke-linejoin:miter;stroke-opacity:1" />
      <path
         sodipodi:nodetypes="ccccccccccccccccccccccc"
         id="path2857"
         d="M 97.142857,155.21933 L 124.28571,152.36218 L 140,155.21933 L 147.14286,163.79075 L 151.42857,178.07647 L 167.14286,255.21933 L 187.14286,370.93361 L 195.71429,443.79075 L 195,469.50504 L 190,485.21933 L 179.28571,497.36218 L 167.14286,502.36218 L 131.42857,505.21933 L 109.28572,500.93361 L 100,489.50504 L 90,463.79075 L 70,368.07647 L 57.142857,269.50504 L 45.714286,185.21933 L 45.714286,169.50504 L 52.857143,162.36218 L 70,156.6479 L 97.142857,155.21933 z "
         style="fill:#83390c;fill-opacity:1;fill-rule:evenodd;stroke:black;stroke-width:1px;stroke-linecap:butt;stroke-linejoin:miter;stroke-opacity:1" />
      <path
         d="M 58.126209,49.769366 C 56.953175,47.679714 55.7822,45.551526 54.611831,43.436156 C 52.8742,40.216926 51.138484,36.996909 49.394483,33.806254 C 47.929632,31.253109 46.50205,28.52803 45.065834,25.845272 C 44.022116,23.873566 42.969651,21.940686 41.91599,20.009027 C 40.873531,18.064349 39.830299,16.124951 38.78698,14.183483 C 37.500196,11.852069 36.231623,9.4398637 34.961321,7.0421322 C 33.053712,3.4145363 31.098123,0.07924632 29.151052,-3.2646676 C 27.505956,-6.1626013 25.849839,-8.7991423 24.202714,-11.439168 C 22.833326,-13.611808 21.46565,-15.757169 20.097224,-17.914664 C 18.354268,-20.814444 16.618286,-23.583665 14.879875,-26.346332 C 13.143522,-29.174728 11.411456,-31.899098 9.6785671,-34.668792 C 7.9382821,-37.377037 6.1947611,-40.134883 4.4546161,-42.843437 C 2.8591341,-45.337023 1.2633311,-47.850683 -0.33067995,-50.324432 C -1.5897799,-52.299372 -2.8279699,-54.077999 -4.0673399,-55.887212 C -5.4487599,-58.077536 -6.7897899,-60.03529 -8.1333899,-61.924141 C -9.4176599,-63.686516 -10.62403,-65.105205 -11.81961,-66.481179 C -13.06399,-67.933718 -14.30414,-69.372617 -15.56422,-70.886003 C -16.80445,-72.357567 -17.99219,-73.633689 -19.22669,-75.083881 C -20.06363,-76.014352 -20.98726,-77.364439 -21.88771,-78.609455 C -22.90118,-80.109522 -23.93611,-81.761605 -24.96091,-83.371727 C -26.2579,-85.448271 -27.54592,-87.381679 -28.83532,-89.356005 C -30.17085,-91.3957 -31.49591,-93.381086 -32.81677,-95.298444 C -34.18663,-97.263344 -35.43234,-98.695424 -36.67803,-100.10675 C -38.04381,-101.71189 -39.35341,-103.10658 -40.64147,-104.42762 C -42.09357,-105.97813 -43.53445,-107.48758 -44.97751,-109.00838 C -46.49419,-110.57002 -47.93344,-111.89443 -49.33969,-113.10026 C -50.82366,-114.34182 -52.24024,-115.38226 -53.6386,-116.37339 C -54.80893,-117.18513 -56.10188,-118.41573 -57.4407,-119.7555 C -59.11897,-121.44566 -60.82376,-123.2375 -62.55838,-125.12694 C -64.19229,-126.94964 -65.78249,-128.61613 -67.36754,-130.26434 C -68.37121,-131.29609 -69.39511,-132.40011 -70.41945,-133.50559 C -71.42634,-134.60316 -72.27722,-135.22737 -73.10014,-135.7648 C -74.13178,-136.47853 -75.25179,-137.45115 -76.32671,-138.2912 C -76.79159,-138.64892 -77.27351,-139.05872 -77.74727,-139.44372 L -78.10816,-145.63832 C -77.64094,-145.24591 -77.1691,-144.83944 -76.70971,-144.47093 C -75.61933,-143.58455 -74.52475,-142.68462 -73.52394,-142.05859 C -72.63909,-141.40338 -71.73988,-140.72094 -70.69705,-139.56994 C -69.68645,-138.47902 -68.67288,-137.37743 -67.66306,-136.28928 C -66.05535,-134.56297 -64.45469,-132.86239 -62.83025,-131.07554 C -61.11125,-129.20388 -59.40874,-127.38795 -57.7557,-125.74914 C -56.47733,-124.57095 -55.21673,-123.43773 -54.03043,-122.54428 C -52.61448,-121.49523 -51.18797,-120.41586 -49.70486,-119.16857 C -48.28149,-117.95759 -46.83114,-116.64965 -45.27912,-115.02731 C -43.83283,-113.5035 -42.37758,-111.94913 -40.94923,-110.48891 C -39.64742,-109.13271 -38.32012,-107.68185 -36.95016,-106.07687 C -35.66068,-104.62543 -34.38119,-103.19578 -32.94335,-101.07433 C -31.60871,-99.134994 -30.27537,-97.162234 -28.92281,-95.065254 C -27.63029,-93.089882 -26.3423,-91.18071 -25.04197,-89.107816 C -24.03309,-87.525872 -23.01669,-85.925677 -22.02042,-84.466457 C -21.15469,-83.267046 -20.27614,-82.003559 -19.46971,-81.100022 C -18.241,-79.651384 -17.01511,-78.211883 -15.80278,-76.830428 C -14.55984,-75.370469 -13.31788,-73.913779 -12.083,-72.48517 C -10.85395,-71.058463 -9.6138399,-69.585526 -8.2903399,-67.737646 C -6.9375299,-65.81813 -5.5804899,-63.864112 -4.1962199,-61.704387 C -2.9365899,-59.851447 -1.6770599,-58.012812 -0.39850995,-55.981146 C 1.1972231,-53.479925 2.7914771,-50.985393 4.3838801,-48.525628 C 6.1254301,-45.771167 7.8695511,-42.973531 9.6095531,-40.246495 C 11.346336,-37.557367 13.088008,-34.821739 14.833934,-31.964693 C 16.570502,-29.169604 18.307207,-26.355186 20.042236,-23.586511 C 21.414461,-21.41116 22.784426,-19.262144 24.157418,-17.070214 C 25.826539,-14.373504 27.505269,-11.687895 29.168587,-8.7204383 C 31.130561,-5.3189973 33.105747,-1.9512655 35.049122,1.5987129 C 36.310569,3.9853678 37.567466,6.4099587 38.852212,8.699107 C 39.903051,10.628667 40.950677,12.567146 41.995887,14.51952 C 43.047337,16.451369 44.09681,18.387409 45.135843,20.366513 C 46.568757,23.067275 47.98762,25.829206 49.454061,28.396564 C 51.193357,31.576004 52.9294,34.768359 54.660642,37.983977 C 55.894574,40.187308 57.13633,42.489241 58.382678,44.457826 L 58.126209,49.769366 z "
         id="path2871"
         style="opacity:1;fill:black;fill-opacity:1;fill-rule:evenodd;stroke:black;stroke-width:1.45747769;stroke-linecap:round;stroke-linejoin:round;stroke-miterlimit:4;stroke-dasharray:none;stroke-opacity:1" />
      <path
         d="M 71.307696,61.846841 C 71.364235,60.939864 71.354407,60.030411 71.368784,59.122227 C 71.242751,57.238863 72.036287,55.752141 72.800678,54.108577 C 75.270283,50.590457 78.130349,47.356001 81.1906,44.343137 C 83.955087,41.576498 86.925267,39.030347 89.805148,36.389312 C 91.683901,34.538076 93.249197,32.407164 94.871587,30.336133 C 96.396677,28.381576 97.702467,26.286459 99.177667,24.298018 C 101.13938,21.882077 103.60828,20.009662 106.04342,18.110299 C 107.91817,16.744709 109.87517,15.497033 111.80257,14.207734 C 115.24168,12.01721 118.8628,10.129636 122.38224,8.0722548 C 125.11444,6.4750772 111.35893,14.294252 114.14949,12.801388 C 117.45587,11.032577 120.66259,9.0833747 123.9303,7.2440941 C 126.45763,5.821542 118.86491,10.070082 116.33222,11.483076 C 118.10294,10.238225 119.93461,9.0849701 121.75305,7.9123557 C 123.95929,6.4908496 126.11222,4.9942438 128.29721,3.5422776 C 130.76294,1.9826066 133.10274,0.24256259 135.52637,-1.3804804 C 137.717,-2.7816624 139.86413,-4.2423064 141.96885,-5.7684954 C 144.42863,-7.2950944 146.53315,-9.2654504 148.66466,-11.204097 C 150.5929,-13.080094 152.73439,-14.704734 154.86812,-16.333987 C 157.41488,-18.276983 159.61928,-20.574697 161.76691,-22.93316 C 163.21476,-24.910282 164.79569,-26.779373 166.34453,-28.676244 C 168.15681,-31.025528 169.91641,-33.414842 171.67847,-35.801766 C 173.83606,-38.669383 176.40532,-41.162408 179.03623,-43.57926 C 181.39979,-45.321958 183.78702,-47.029899 186.21572,-48.680854 C 188.03222,-49.900371 189.85305,-51.113844 191.67372,-52.32588 C 208.87679,-62.487579 199.3574,-56.996604 196.08375,-55.187485 C 198.08463,-56.677923 200.12522,-58.112295 202.16862,-59.542188 C 206.10474,-62.204937 210.13218,-64.730494 214.2144,-67.16241 C 220.54936,-71.548983 227.47929,-74.685732 234.44284,-77.825941 C 238.16979,-79.087774 252.56404,-87.274481 238.07508,-79.022463 C 244.35134,-82.954983 250.78172,-86.538491 257.50312,-89.610001 C 261.06796,-91.329901 264.74454,-92.761671 268.4544,-94.131931 C 275.51916,-96.313071 282.37145,-99.089021 289.17759,-101.9604 C 295.08351,-104.0912 301.0019,-106.19877 306.96154,-108.17642 C 311.70684,-109.78195 316.40504,-111.52469 321.14899,-113.12909 C 325.46646,-114.61207 329.75189,-116.19585 334.03553,-117.77809 C 336.31536,-118.49658 338.56639,-119.30078 340.81994,-120.09645 L 332.68812,-113.76602 C 330.44769,-112.99261 328.20504,-112.22636 325.95794,-111.47252 C 321.70287,-109.94004 317.45181,-108.39367 313.1766,-106.91948 C 308.48004,-105.24708 303.75508,-103.66396 299.04571,-102.02729 C 293.16714,-100.06563 287.29557,-98.069501 281.49164,-95.897431 C 274.54935,-93.025001 267.54188,-90.321611 260.44193,-87.861311 C 256.70896,-86.453111 253.02705,-84.932724 249.43364,-83.194417 C 237.51958,-77.747421 251.45314,-84.201158 247.47511,-82.645205 C 240.58162,-78.646934 233.82004,-74.558149 226.46486,-71.477213 C 223.85887,-70.322975 216.27472,-66.401411 218.69724,-67.903008 C 220.33364,-68.917322 229.35733,-74.165514 223.69088,-70.805272 C 219.61119,-68.471493 215.62688,-65.95646 211.756,-63.290298 C 209.75089,-61.922119 207.79008,-60.499503 205.82794,-59.070975 C 188.26722,-48.428424 198.67782,-54.721065 201.40233,-56.183402 C 199.58896,-54.919329 197.76766,-53.674851 195.90125,-52.485708 C 193.44203,-50.82772 191.03076,-49.117456 188.59487,-47.425786 C 185.89453,-45.110932 183.28589,-42.687398 181.098,-39.8563 C 179.39211,-37.487569 177.6563,-35.138969 175.94191,-32.774475 C 174.39057,-30.835958 172.7057,-29.005671 171.28316,-26.966693 C 169.15895,-24.56135 167.01464,-22.174944 164.47092,-20.191129 C 162.36962,-18.520554 160.17436,-16.962949 158.2235,-15.109422 C 156.10625,-13.199948 154.12525,-11.087913 151.66315,-9.6154924 C 149.55687,-8.0325564 147.39523,-6.5259604 145.13636,-5.1656184 C 142.70394,-3.5757094 140.40412,-1.8064934 137.9711,-0.21116041 C 135.74281,1.1591466 133.6751,2.7283486 131.45082,4.1104029 C 129.67756,5.2963609 127.86897,6.4246967 126.10651,7.6270418 C 122.64896,9.6842063 119.16525,11.698031 115.73386,13.798535 C 113.03386,15.451317 126.70616,7.4781977 123.94352,9.0239877 C 120.67661,10.851932 117.49594,12.831809 114.22088,14.645098 C 111.75483,16.010464 126.06687,7.5085976 121.5582,10.441008 C 119.59214,11.727409 117.57412,12.960283 115.64107,14.306868 C 113.2049,16.134323 110.71796,17.919172 108.71998,20.248832 C 107.181,22.168459 105.90786,24.231322 104.44695,26.213784 C 102.79586,28.342027 101.1838,30.517782 99.308607,32.458142 C 96.441737,35.189044 93.369477,37.69159 90.552655,40.483416 C 87.5151,43.370008 84.759075,46.524881 82.263235,49.8926 C 81.606711,51.331616 80.691238,52.661349 80.774074,54.329992 C 80.788353,55.217409 80.777621,56.106227 80.835162,56.992355 L 71.307696,61.846841 z "
         id="path2869"
         style="opacity:1;fill:black;fill-opacity:1;fill-rule:evenodd;stroke:black;stroke-width:2.79999995;stroke-linecap:round;stroke-linejoin:round;stroke-miterlimit:4;stroke-dasharray:none;stroke-opacity:1" />
      <path
         id="path2859"
         d="M 61.428571,158.79075 L 87.857143,155.21932 L 117.85714,155.21932 L 130,151.6479 L 135,143.79075 L 132.85714,136.6479 L 129.28571,125.21932 L 121.42857,105.21932 L 116.42857,93.076467 L 106.42857,83.790753 L 106.42857,75.93361 L 100.71429,64.505039 L 95,57.362182 L 81.428572,49.505039 L 62.857143,46.647896 L 52.857143,48.076467 L 45.714286,58.076467 L 40,73.790753 L 43.571429,86.647896 L 45,95.93361 C 45,95.93361 41.428571,103.79075 41.428571,106.6479 C 41.428571,109.50504 42.142857,118.79075 42.142857,118.79075 L 42.857143,129.50504 C 42.857143,129.50504 42.857143,134.50504 44.285714,140.21932 C 45.714286,145.93361 48.571429,150.93361 48.571429,150.93361 L 55,159.50504 L 61.428571,158.79075 z "
         style="fill:#893020;fill-opacity:1;fill-rule:evenodd;stroke:black;stroke-width:1px;stroke-linecap:butt;stroke-linejoin:miter;stroke-opacity:1" />
      <path
         transform="translate(9.285714,0.714286)"
         d="M 39.285714 61.290752 A 8.2142859 8.2142859 0 1 1  22.857142,61.290752 A 8.2142859 8.2142859 0 1 1  39.285714 61.290752 z"
         sodipodi:ry="8.2142859"
         sodipodi:rx="8.2142859"
         sodipodi:cy="61.290752"
         sodipodi:cx="31.071428"
         id="path2861"
         style="opacity:1;fill:black;fill-opacity:1;fill-rule:evenodd;stroke:black;stroke-width:2.79999995;stroke-linecap:round;stroke-linejoin:round;stroke-miterlimit:4;stroke-dasharray:none;stroke-opacity:1"
         sodipodi:type="arc" />
      <path
         transform="translate(67.5,-0.357143)"
         d="M 39.285714 61.290752 A 8.2142859 8.2142859 0 1 1  22.857142,61.290752 A 8.2142859 8.2142859 0 1 1  39.285714 61.290752 z"
         sodipodi:ry="8.2142859"
         sodipodi:rx="8.2142859"
         sodipodi:cy="61.290752"
         sodipodi:cx="31.071428"
         id="path2863"
         style="opacity:1;fill:black;fill-opacity:1;fill-rule:evenodd;stroke:black;stroke-width:2.79999995;stroke-linecap:round;stroke-linejoin:round;stroke-miterlimit:4;stroke-dasharray:none;stroke-opacity:1"
         sodipodi:type="arc" />
      <path
         sodipodi:nodetypes="cssssssssssssc"
         id="path2873"
         d="M 119.21463,220.71415 C 131.01625,215.97236 142.81785,211.23059 154.61948,206.48882 C 158.11025,205.08627 158.60866,279.98661 164.01914,293.07394 C 171.23085,310.51821 169.17934,331.04098 174.99623,349.0947 C 181.92933,370.6128 185.06609,394.49213 188.13867,416.90181 C 190.85618,436.72157 189.91942,467.36144 183.22514,485.23635 C 177.20316,501.31614 142.42209,503.0153 130.29012,499.80102 C 115.457,495.87111 109.94749,516.43109 93.364841,452.8716 C 87.822467,431.62829 83.809306,411.3943 77.155646,390.74352 C 69.950156,368.38003 80.882681,337.18226 78.370436,313.46214 C 76.271204,293.64162 68.697358,276.9684 66.010212,257.37 C 63.451716,238.70985 60.333597,219.32042 77.870546,215.66175 C 87.417036,213.6701 98.555425,214.44544 105.4583,218.54487 C 111.29789,222.01284 111.77457,221.88327 119.21463,220.71415 z "
         style="fill:url(#linearGradient2991);fill-opacity:1;fill-rule:evenodd;stroke:none;stroke-width:1px;stroke-linecap:butt;stroke-linejoin:miter;stroke-opacity:1" />
      <path
         id="path2887"
         d="M 84.669329,105.42395 C 89.289908,106.13209 100.6312,99.135455 109.00868,100.1178 C 116.35145,100.97881 114.35453,113.37016 116.67937,119.5631 C 119.69511,127.59648 127.93617,135.27698 115.81536,138.00763 C 104.2892,140.60432 98.163737,140.38881 86.527981,139.02441 C 82.4881,138.55069 81.63227,146.2912 77.609604,146.88065 C 75.980873,147.11931 74.37724,147.49073 72.761057,147.79578 C 57.984971,150.58465 55.194194,125.72944 56.356768,116.9407 C 57.84278,105.70689 57.572776,101.33359 69.634872,99.951839 C 75.181286,99.316491 77.098185,105.55221 84.669329,105.42395 z "
         style="fill:url(#radialGradient2993);fill-opacity:1;fill-rule:evenodd;stroke:none;stroke-width:1px;stroke-linecap:butt;stroke-linejoin:miter;stroke-opacity:1" />
      <path
         transform="matrix(-0.48481,0.653177,-0.344569,-0.555149,200.9454,1374.978)"
         d="M -165.71429 -84.78067 A 97.14286 434.28571 0 1 1  -360.00001,-84.78067 A 97.14286 434.28571 0 1 1  -165.71429 -84.78067 z"
         sodipodi:ry="434.28571"
         sodipodi:rx="97.14286"
         sodipodi:cy="-84.78067"
         sodipodi:cx="-262.85715"
         id="path2897"
         style="opacity:0.31455395;fill:url(#radialGradient2995);fill-opacity:1;fill-rule:evenodd;stroke:none;stroke-width:2.79999995;stroke-linecap:round;stroke-linejoin:round;stroke-miterlimit:4;stroke-dasharray:none;stroke-opacity:1"
         sodipodi:type="arc" />
      <path
         transform="matrix(-1.095947e-2,0.813364,-0.604259,-0.248576,576.2249,1107.705)"
         d="M -165.71429 -84.78067 A 97.14286 434.28571 0 1 1  -360.00001,-84.78067 A 97.14286 434.28571 0 1 1  -165.71429 -84.78067 z"
         sodipodi:ry="434.28571"
         sodipodi:rx="97.14286"
         sodipodi:cy="-84.78067"
         sodipodi:cx="-262.85715"
         id="path2907"
         style="opacity:0.43192486;fill:url(#radialGradient2997);fill-opacity:1;fill-rule:evenodd;stroke:none;stroke-width:2.79999995;stroke-linecap:round;stroke-linejoin:round;stroke-miterlimit:4;stroke-dasharray:none;stroke-opacity:1"
         sodipodi:type="arc" />
      <path
         transform="matrix(0.344423,0.734626,-0.745929,2.010572e-3,762.6847,823.3907)"
         d="M -165.71429 -84.78067 A 97.14286 434.28571 0 1 1  -360.00001,-84.78067 A 97.14286 434.28571 0 1 1  -165.71429 -84.78067 z"
         sodipodi:ry="434.28571"
         sodipodi:rx="97.14286"
         sodipodi:cy="-84.78067"
         sodipodi:cx="-262.85715"
         id="path2911"
         style="opacity:0.31924881;fill:url(#radialGradient2999);fill-opacity:1;fill-rule:evenodd;stroke:none;stroke-width:2.79999995;stroke-linecap:round;stroke-linejoin:round;stroke-miterlimit:4;stroke-dasharray:none;stroke-opacity:1"
         sodipodi:type="arc" />
      <path
         transform="matrix(0.420119,0.69412,-0.741541,8.081822e-2,782.9541,595.1707)"
         d="M -165.71429 -84.78067 A 97.14286 434.28571 0 1 1  -360.00001,-84.78067 A 97.14286 434.28571 0 1 1  -165.71429 -84.78067 z"
         sodipodi:ry="434.28571"
         sodipodi:rx="97.14286"
         sodipodi:cy="-84.78067"
         sodipodi:cx="-262.85715"
         id="path2915"
         style="opacity:0.30046949;fill:url(#radialGradient3001);fill-opacity:1;fill-rule:evenodd;stroke:none;stroke-width:2.79999995;stroke-linecap:round;stroke-linejoin:round;stroke-miterlimit:4;stroke-dasharray:none;stroke-opacity:1"
         sodipodi:type="arc" />
      <path
         transform="matrix(0.576319,0.571104,-0.699621,0.258739,811.4038,335.4827)"
         d="M -165.71429 -84.78067 A 97.14286 434.28571 0 1 1  -360.00001,-84.78067 A 97.14286 434.28571 0 1 1  -165.71429 -84.78067 z"
         sodipodi:ry="434.28571"
         sodipodi:rx="97.14286"
         sodipodi:cy="-84.78067"
         sodipodi:cx="-262.85715"
         id="path2919"
         style="opacity:0.34272299;fill:url(#radialGradient3003);fill-opacity:1;fill-rule:evenodd;stroke:none;stroke-width:2.79999995;stroke-linecap:round;stroke-linejoin:round;stroke-miterlimit:4;stroke-dasharray:none;stroke-opacity:1"
         sodipodi:type="arc" />
      <path
         transform="matrix(0.617635,-0.526147,0.198867,0.718935,312.55,1233.611)"
         d="M -165.71429 -84.78067 A 97.14286 434.28571 0 1 1  -360.00001,-84.78067 A 97.14286 434.28571 0 1 1  -165.71429 -84.78067 z"
         sodipodi:ry="434.28571"
         sodipodi:rx="97.14286"
         sodipodi:cy="-84.78067"
         sodipodi:cx="-262.85715"
         id="path2923"
         style="opacity:0.34272299;fill:url(#radialGradient3005);fill-opacity:1;fill-rule:evenodd;stroke:none;stroke-width:2.79999995;stroke-linecap:round;stroke-linejoin:round;stroke-miterlimit:4;stroke-dasharray:none;stroke-opacity:1"
         sodipodi:type="arc" />
      <path
         transform="matrix(0.721322,0.371479,-0.589506,0.457053,-397.7752,1208.96)"
         d="M -165.71429 -84.78067 A 97.14286 434.28571 0 1 1  -360.00001,-84.78067 A 97.14286 434.28571 0 1 1  -165.71429 -84.78067 z"
         sodipodi:ry="434.28571"
         sodipodi:rx="97.14286"
         sodipodi:cy="-84.78067"
         sodipodi:cx="-262.85715"
         id="path2927"
         style="opacity:0.30046949;fill:url(#radialGradient3007);fill-opacity:1;fill-rule:evenodd;stroke:none;stroke-width:2.79999995;stroke-linecap:round;stroke-linejoin:round;stroke-miterlimit:4;stroke-dasharray:none;stroke-opacity:1"
         sodipodi:type="arc" />
      <path
         transform="matrix(0.521504,0.621559,-0.720404,0.193474,-562.4117,1034.156)"
         d="M -165.71429 -84.78067 A 97.14286 434.28571 0 1 1  -360.00001,-84.78067 A 97.14286 434.28571 0 1 1  -165.71429 -84.78067 z"
         sodipodi:ry="434.28571"
         sodipodi:rx="97.14286"
         sodipodi:cy="-84.78067"
         sodipodi:cx="-262.85715"
         id="path2931"
         style="opacity:0.30046949;fill:url(#radialGradient3009);fill-opacity:1;fill-rule:evenodd;stroke:none;stroke-width:2.79999995;stroke-linecap:round;stroke-linejoin:round;stroke-miterlimit:4;stroke-dasharray:none;stroke-opacity:1"
         sodipodi:type="arc" />
      <path
         transform="matrix(0.420119,0.69412,-0.741541,8.081822e-2,-651.4627,845.6886)"
         d="M -165.71429 -84.78067 A 97.14286 434.28571 0 1 1  -360.00001,-84.78067 A 97.14286 434.28571 0 1 1  -165.71429 -84.78067 z"
         sodipodi:ry="434.28571"
         sodipodi:rx="97.14286"
         sodipodi:cy="-84.78067"
         sodipodi:cx="-262.85715"
         id="path2935"
         style="opacity:0.30046949;fill:url(#radialGradient3011);fill-opacity:1;fill-rule:evenodd;stroke:none;stroke-width:2.79999995;stroke-linecap:round;stroke-linejoin:round;stroke-miterlimit:4;stroke-dasharray:none;stroke-opacity:1"
         sodipodi:type="arc" />
      <path
         transform="matrix(0.26695,0.766186,-0.742172,-7.480592e-2,-679.6558,637.2853)"
         d="M -165.71429 -84.78067 A 97.14286 434.28571 0 1 1  -360.00001,-84.78067 A 97.14286 434.28571 0 1 1  -165.71429 -84.78067 z"
         sodipodi:ry="434.28571"
         sodipodi:rx="97.14286"
         sodipodi:cy="-84.78067"
         sodipodi:cx="-262.85715"
         id="path2939"
         style="opacity:0.30046949;fill:url(#radialGradient3013);fill-opacity:1;fill-rule:evenodd;stroke:none;stroke-width:2.79999995;stroke-linecap:round;stroke-linejoin:round;stroke-miterlimit:4;stroke-dasharray:none;stroke-opacity:1"
         sodipodi:type="arc" />
      <path
         inkscape:transform-center-x="-40.406102"
         transform="matrix(-0.229149,0.778327,-0.559792,-0.492998,-612.7694,334.3013)"
         d="M -165.71429 -84.78067 A 97.14286 434.28571 0 1 1  -360.00001,-84.78067 A 97.14286 434.28571 0 1 1  -165.71429 -84.78067 z"
         sodipodi:ry="434.28571"
         sodipodi:rx="97.14286"
         sodipodi:cy="-84.78067"
         sodipodi:cx="-262.85715"
         id="path2943"
         style="opacity:0.30046949;fill:url(#radialGradient3015);fill-opacity:1;fill-rule:evenodd;stroke:none;stroke-width:2.79999995;stroke-linecap:round;stroke-linejoin:round;stroke-miterlimit:4;stroke-dasharray:none;stroke-opacity:1"
         sodipodi:type="arc" />
    </g>
  </g>
</svg>
