<svg xmlns:dc="http://purl.org/dc/elements/1.1/" xmlns:cc="http://creativecommons.org/ns#" xmlns:rdf="http://www.w3.org/1999/02/22-rdf-syntax-ns#" xmlns:svg="http://www.w3.org/2000/svg" xmlns="http://www.w3.org/2000/svg" xmlns:sodipodi="http://sodipodi.sourceforge.net/DTD/sodipodi-0.dtd" xmlns:inkscape="http://www.inkscape.org/namespaces/inkscape" version="1.1" x="0px" y="0px" viewBox="0 0 100 125"><g transform="translate(0,-952.36218)"><path d="m 53.691498,961.36222 c 20.7727,9.3756 20.7815,40.18118 -2.7608,49.55658 -23.8228,-21.21958 -12.5594,-44.95418 2.7608,-49.55658 z m -18.5813,3.9336 c 2.4271,0.031 4.7557,0.5121 6.9176,1.3937 -2.0201,2.267 -3.6891,4.9399 -4.8702,7.8981 -2.1495,-1.0681 -4.3818,-1.9133 -6.6694,-2.4778 1.2818,-2.5951 2.8613,-4.9267 4.622,-6.814 z m -10.7641,7.96 c 4.1176,0.1512 8.3075,1.2911 12.1601,3.2211 -0.3152,0.9985 -0.605,2.014 -0.8066,3.0664 -1.812,9.4581 1.353,20.86918 12.4082,31.43748 -30.0363,-0.1534 -34.4259,-21.94298 -30.4621,-37.04348 2.3941,-0.5561 4.4855,-0.6994 6.7004,-0.6815 z m 62.072,20.4111 c 4.3003,15.57498 1.0162,42.47708 -24.7854,49.55658 -33.0884,1.3759 -41.3605,-7.4537 -49.632699,-28.0924 17.403299,-4.8612 37.538199,1.5838 48.764199,26.0793 -7.4888,-19.7588 14.0795,-47.54348 25.6539,-47.54348 z" style="color:#000000;enable-background:accumulate;" fill="#000000" stroke="none" marker="none" visibility="visible" display="inline" overflow="visible"/></g><text x="0" y="115" fill="#000000" font-size="5px" font-weight="bold" font-family="'Helvetica Neue', Helvetica, Arial-Unicode, Arial, Sans-serif">Created by Orin zuu</text><text x="0" y="120" fill="#000000" font-size="5px" font-weight="bold" font-family="'Helvetica Neue', Helvetica, Arial-Unicode, Arial, Sans-serif">from the Noun Project</text></svg>